# xmcd CD database file
#
# Track frame offsets:
#	180
#	25443
#	63002
#	96536
#	148935
#	175993
#	213653
#	235755
#	259576
#
# Disc length: 4020 seconds
#
# Revision: 0
# Processed by: cddbd v1.5.1PL2 Copyright (c) Steve Scherf et al.
# Submitted via: CDex 1.51
#
DISCID=840fb209
DTITLE=Ed Schuller - The Force
DYEAR=1996
DGENRE=Jazz
TTITLE0=Warm Puppies
TTITLE1=Playing For Keeps
TTITLE2=4KH
TTITLE3=The Force
TTITLE4=Star-Crossed Lovers
TTITLE5=Jumpin' Gemini
TTITLE6=Bathing Beauties
TTITLE7=Kyyoi
TTITLE8=Ohadi
EXTD=YEAR: 1996
EXTT0=
EXTT1=
EXTT2=
EXTT3=
EXTT4=
EXTT5=
EXTT6=
EXTT7=
EXTT8=
PLAYORDER=
